<?xml version="1.0" standalone="no"?>
<!DOCTYPE svg PUBLIC "-//W3C//DTD SVG 20010904//EN"
 "http://www.w3.org/TR/2001/REC-SVG-20010904/DTD/svg10.dtd">
<svg version="1.0" xmlns="http://www.w3.org/2000/svg"
 width="518.000000pt" height="518.000000pt" viewBox="0 0 518.000000 518.000000"
 preserveAspectRatio="xMidYMid meet">
<metadata>
Created by potrace 1.14, written by Peter Selinger 2001-2017
</metadata>
<g transform="translate(0.000000,518.000000) scale(0.100000,-0.100000)"
fill="#000000" stroke="none">
<path d="M3324 4381 c-2 -2 -19 -6 -37 -8 -42 -5 -54 -7 -107 -23 -25 -8 -47
-14 -50 -14 -10 -2 -86 -38 -110 -52 -14 -8 -33 -18 -42 -21 -10 -3 -18 -10
-18 -15 0 -5 -5 -6 -10 -3 -6 3 -13 -1 -16 -9 -3 -9 -11 -16 -16 -16 -6 0 -20
-9 -32 -19 -11 -11 -43 -38 -69 -60 -27 -23 -45 -41 -41 -41 4 0 1 -6 -7 -12
-30 -26 -95 -114 -119 -163 -14 -27 -29 -53 -34 -56 -5 -4 -5 -12 -1 -19 5 -8
4 -11 -3 -6 -6 3 -14 -7 -18 -26 -10 -43 -9 -39 -22 -71 -7 -16 -10 -32 -7
-37 3 -5 1 -11 -4 -14 -10 -7 -23 -95 -26 -182 -2 -34 -6 -67 -9 -73 -4 -6 -3
-11 1 -11 5 0 9 -10 9 -22 1 -13 4 -46 8 -74 6 -44 5 -52 -10 -58 -10 -4 -22
-2 -27 3 -7 7 -16 7 -29 0 -10 -5 -18 -6 -18 -1 0 5 -9 8 -21 7 -11 -1 -49 3
-82 8 -34 4 -72 9 -84 9 -13 0 -21 3 -19 7 3 4 -15 7 -40 6 -24 0 -44 3 -44 6
0 4 -17 9 -37 12 -60 10 -72 13 -79 19 -3 4 -12 4 -19 2 -7 -3 -16 -1 -20 5
-3 6 -15 11 -25 11 -10 0 -31 5 -47 12 -15 6 -31 11 -34 10 -4 -1 -31 8 -60
19 -30 11 -65 24 -79 29 -14 4 -43 16 -65 25 -22 10 -42 18 -45 18 -3 0 -27
12 -55 25 -27 14 -52 24 -54 23 -2 -2 -7 1 -10 6 -3 4 -37 24 -76 43 -38 19
-74 39 -80 43 -16 12 -196 131 -217 143 -11 6 -35 25 -54 42 -19 17 -34 29
-34 27 0 -2 -11 6 -24 18 -13 12 -44 39 -67 60 -84 74 -199 188 -199 197 0 5
-6 13 -14 17 -8 4 -29 27 -48 50 -19 22 -39 38 -44 35 -13 -9 -60 -116 -84
-193 -19 -58 -28 -108 -34 -184 -1 -17 -5 -35 -9 -42 -4 -6 -3 -14 2 -17 11
-7 9 -25 -3 -45 -6 -9 -5 -12 2 -7 7 4 10 -3 8 -21 -1 -16 2 -46 7 -68 4 -22
10 -53 12 -70 2 -16 4 -32 5 -35 1 -3 2 -8 1 -12 0 -5 4 -8 11 -8 6 0 9 -3 5
-6 -10 -10 57 -175 75 -182 5 -2 6 -7 3 -12 -3 -4 2 -13 10 -20 8 -7 15 -17
15 -22 0 -9 12 -25 47 -64 12 -13 20 -24 17 -24 -2 0 13 -17 35 -37 22 -20 37
-41 34 -47 -3 -6 -3 -8 1 -4 9 7 23 -2 61 -40 12 -12 27 -22 34 -22 6 0 11 -4
11 -8 0 -4 -22 -8 -50 -7 -27 0 -50 3 -50 6 0 6 -60 19 -102 22 -10 1 -18 5
-18 10 0 5 -7 7 -15 3 -8 -3 -15 -2 -15 3 0 5 -16 12 -35 15 -19 4 -35 11 -35
16 0 6 -3 9 -8 8 -11 -2 -46 14 -54 26 -13 18 -13 -34 -3 -134 4 -36 10 -67
14 -70 3 -3 6 -16 7 -30 1 -29 7 -53 14 -60 4 -3 11 -24 18 -47 7 -23 28 -68
47 -100 19 -32 38 -66 41 -75 4 -10 10 -18 15 -18 5 0 9 -4 9 -10 0 -21 176
-201 188 -192 1 1 8 -2 15 -8 45 -38 61 -49 87 -60 17 -7 30 -17 30 -22 0 -6
7 -8 15 -4 8 3 15 1 15 -4 0 -6 4 -10 9 -10 5 0 22 -5 38 -12 34 -13 35 -14
98 -32 28 -8 44 -16 38 -17 -17 -2 -32 -6 -35 -9 -17 -13 -260 -21 -275 -8 -9
7 -13 7 -13 -1 0 -7 -4 -10 -8 -7 -5 3 -20 7 -35 10 l-27 5 16 -37 c9 -20 17
-41 18 -47 1 -5 8 -21 16 -35 8 -14 15 -27 15 -30 2 -12 64 -106 83 -126 6 -7
12 -16 12 -19 0 -10 151 -155 161 -155 4 0 16 -9 26 -19 20 -21 185 -106 227
-117 14 -3 29 -10 31 -15 3 -4 13 -5 21 -2 9 3 20 0 25 -8 7 -12 9 -12 9 0 0
10 3 11 14 2 7 -6 39 -14 70 -17 31 -3 64 -7 74 -9 9 -2 19 -4 21 -4 3 -1 -24
-21 -60 -45 -35 -25 -70 -50 -76 -56 -7 -6 -13 -7 -13 -3 0 4 -4 4 -8 -2 -8
-12 -28 -23 -138 -81 -45 -23 -85 -40 -88 -37 -3 4 -6 1 -6 -5 0 -7 -3 -11 -7
-11 -5 1 -24 -4 -43 -12 -19 -7 -38 -12 -42 -11 -5 1 -8 -2 -8 -8 0 -5 -7 -7
-15 -4 -8 4 -15 2 -15 -4 0 -5 -18 -12 -40 -16 -22 -3 -40 -10 -40 -15 0 -4
-12 -6 -26 -3 -19 3 -25 1 -20 -7 5 -7 0 -10 -16 -7 -13 2 -27 0 -33 -4 -5 -4
-30 -11 -55 -14 -25 -4 -58 -9 -75 -12 -16 -3 -44 -6 -61 -8 -16 -1 -34 -5
-40 -8 -15 -8 -336 -8 -353 1 -9 5 -22 6 -29 4 -19 -7 5 -33 30 -33 10 0 16
-5 13 -10 -3 -6 1 -10 9 -10 8 0 22 -7 30 -16 9 -8 20 -12 26 -9 5 3 10 2 10
-2 0 -15 272 -145 350 -168 14 -4 30 -12 37 -17 7 -5 17 -7 22 -4 5 4 12 2 15
-3 3 -5 22 -12 41 -15 19 -4 35 -10 35 -14 0 -4 8 -8 18 -9 26 -3 64 -11 99
-21 17 -6 34 -8 37 -4 3 3 6 1 6 -4 0 -5 8 -10 18 -11 9 -1 31 -5 47 -8 17 -4
54 -9 82 -12 29 -3 51 -8 49 -12 -3 -4 10 -6 27 -6 18 1 40 -2 50 -7 11 -6 17
-5 17 2 0 7 5 8 13 3 6 -4 24 -8 40 -9 15 -1 28 -3 30 -4 5 -5 427 -6 427 0 0
3 19 5 43 5 23 0 48 4 56 10 11 7 13 7 7 -2 -4 -7 -2 -13 3 -13 6 0 11 4 11 8
0 5 18 8 40 7 22 -1 40 1 40 5 0 3 15 7 33 8 30 3 66 8 77 12 3 1 12 2 22 1 9
-1 19 3 22 8 4 6 13 8 20 5 8 -3 17 0 21 5 3 6 10 9 15 6 4 -2 28 1 53 9 25 8
48 11 51 8 4 -3 6 0 6 7 0 7 4 10 9 7 8 -5 120 30 229 72 28 11 52 17 52 14 0
-4 7 1 14 11 8 10 17 18 20 17 17 -2 56 14 56 23 0 6 3 8 6 4 3 -3 44 14 90
39 46 24 84 42 84 39 0 -3 9 3 19 13 37 33 47 38 60 34 8 -3 11 0 7 7 -4 6 -1
11 8 11 9 0 16 5 16 11 0 5 4 8 9 5 4 -3 16 3 26 14 10 11 24 20 32 20 7 0 13
4 13 8 0 4 12 15 28 24 15 9 37 25 48 35 12 10 36 29 55 43 60 46 298 270 285
270 -2 0 12 17 32 38 20 22 48 54 62 72 14 18 30 38 36 44 6 6 19 25 29 41 11
17 25 34 32 38 7 4 13 14 13 21 0 7 9 21 20 31 11 10 17 21 15 25 -3 4 2 11
11 14 9 4 14 9 11 12 -3 4 -1 12 6 20 30 33 35 42 30 48 -4 3 -1 6 6 6 7 0 10
4 7 9 -3 5 1 14 9 21 8 7 15 19 15 26 0 8 3 14 8 14 4 0 13 15 21 33 8 17 20
39 27 47 7 8 13 17 13 20 2 24 25 69 34 63 5 -3 7 -2 4 3 -3 6 3 28 13 51 10
23 16 44 12 47 -3 3 0 6 7 6 7 0 9 5 6 10 -3 6 -1 10 4 10 6 0 10 3 9 8 0 4 2
16 6 27 4 11 13 34 19 50 7 17 12 32 13 35 0 3 4 12 7 20 14 31 57 176 63 210
4 19 12 41 18 49 9 12 8 13 -3 7 -8 -6 -7 0 4 18 14 20 14 26 4 26 -10 0 -11
2 -2 8 6 4 15 32 19 62 4 30 12 61 18 69 9 12 8 13 -4 6 -12 -7 -13 -6 -4 6 6
8 10 24 9 37 -1 12 3 22 9 22 6 0 4 5 -4 10 -8 5 -10 10 -4 10 6 0 10 20 10
50 -1 28 2 50 5 50 3 0 6 75 8 168 1 100 6 168 12 171 18 6 143 114 214 186
90 90 175 193 175 211 0 9 4 13 9 10 7 -4 31 34 31 50 0 2 -17 -3 -37 -12 -88
-38 -150 -58 -248 -80 -38 -8 -77 -18 -85 -22 -8 -3 -22 -6 -31 -7 -8 -1 -32
-5 -53 -9 -33 -6 -36 -5 -24 7 7 8 16 13 19 11 4 -2 9 3 13 11 3 8 13 15 21
15 9 0 13 5 10 10 -3 6 -1 10 4 10 29 0 219 218 204 234 -3 3 -1 6 6 6 10 0
28 32 29 54 0 5 4 12 9 15 5 3 18 29 30 58 18 43 19 52 7 57 -8 3 -14 1 -14
-4 0 -6 -6 -10 -14 -10 -8 0 -16 -4 -18 -9 -1 -5 -10 -11 -18 -13 -8 -2 -17
-6 -20 -9 -7 -9 -146 -69 -159 -69 -6 0 -11 -5 -11 -12 0 -6 -3 -8 -7 -5 -3 4
-12 2 -20 -4 -7 -6 -13 -8 -13 -5 0 4 -9 2 -21 -4 -11 -6 -30 -14 -42 -16 -12
-3 -26 -6 -32 -7 -5 -2 -14 -5 -20 -8 -5 -4 -28 -10 -50 -14 -45 -9 -54 -12
-57 -15 -15 -11 -45 -4 -64 15 -13 13 -24 22 -24 20 0 -3 -16 10 -35 28 -45
41 -83 69 -120 87 -16 8 -32 17 -35 20 -16 16 -191 83 -198 76 -3 -3 -10 -2
-16 3 -6 5 -31 12 -56 15 -25 2 -45 5 -45 6 0 1 -19 4 -43 6 -32 2 -41 0 -35
-9 5 -9 4 -9 -8 0 -13 11 -134 14 -145 4z"/>
</g>
</svg>
